<svg xmlns="http://www.w3.org/2000/svg" width="391" height="2620.479" viewBox="0 0 391 2620.479"><g transform="translate(0.5 0.5)"><path d="M249,1173.641l31.652,68.106L402.894,1127.8Z" transform="translate(-12.894 103.137)" fill="#3d5771"/><path d="M402.752,1127.321l.484.845L280.993,1242.113l-.794-.155-31.652-68.106.311-.69ZM280.815,1240.912l120.179-112.024-151.3,45.067Z" transform="translate(-12.894 103.137)" fill="#3d5771"/><path d="M278,1241.747l122.242,19.646V1127.8Z" transform="translate(-10.242 103.137)" fill="#334d68"/><path d="M400.163,1261.887l-122.242-19.646-.262-.859L399.9,1127.434l.841.366v133.593Zm-121.074-20.471,120.653,19.391V1128.95Z" transform="translate(-10.242 103.137)" fill="#334d68"/><path d="M402.894,1140.173,271.92,992.5,249,1186.014Z" transform="translate(-12.894 90.764)" fill="#334d68"/><path d="M249.143,1186.493l-.639-.538,22.92-193.514.871-.273,130.974,147.673-.231.811Zm23.143-192.827-22.7,191.652L402,1139.918Z" transform="translate(-12.894 90.764)" fill="#334d68"/><path d="M400.974,996.866,270,992.5l130.974,147.673Z" transform="translate(-10.974 90.764)" fill="#37516c"/><path d="M270.017,992l130.974,4.366.483.5v143.307l-.874.332L269.626,992.832Zm130.457,5.349-129.328-4.311,129.328,145.817Z" transform="translate(-10.974 90.764)" fill="#37516c"/><path d="M278,1232.2l122.242,155.313V1251.846Z" transform="translate(-10.242 112.684)" fill="#3d5771"/><path d="M278.079,1231.706l122.242,19.646.421.494v135.667l-.893.309L277.607,1232.509Zm121.663,20.566L279.185,1232.9l120.558,153.173Z" transform="translate(-10.242 112.684)" fill="#3d5771"/><path d="M116,1273.675,264.437,1385.33l28.378-153.13Z" transform="translate(-7.537 112.684)" fill="#314b67"/><path d="M292.7,1231.713l.606.578-28.378,153.13-.792.308L115.7,1274.074l.186-.886Zm-28.608,152.732,28.091-151.584-175.029,41.056Z" transform="translate(-7.537 112.684)" fill="#314b67"/><path d="M280.378,1232.2,252,1385.33l150.62,2.183Z" transform="translate(-12.62 112.684)" fill="#2a4662"/><path d="M280.771,1231.891,403.013,1387.2l-.4.809-150.62-2.183-.484-.591,28.378-153.13ZM401.578,1387l-120.91-153.621L252.6,1384.839Z" transform="translate(-12.62 112.684)" fill="#2a4662"/><path d="M280.334,992.5,157,1024.152l100.413,161.862Z" transform="translate(-5.857 90.764)" fill="#39536e"/><path d="M280.209,992.016l.621.543-22.92,193.514-.921.2L156.575,1024.416l.3-.748Zm-23.125,192.52,22.667-191.37-121.968,31.3Z" transform="translate(-5.857 90.764)" fill="#39536e"/><path d="M261.163,1169.8,116,1279.381l176.815-41.475Z" transform="translate(-7.537 106.978)" fill="#3d5771"/><path d="M260.862,1169.4l.755.188,31.652,68.106-.339.7-176.815,41.475-.415-.886ZM292.1,1237.56l-31.132-66.988L118.191,1278.354Z" transform="translate(-7.537 106.978)" fill="#3d5771"/><path d="M161.755,1021.5,105,1129.881l157.169,53.481Z" transform="translate(-5.621 93.416)" fill="#39536e"/><path d="M162.18,1021.236,262.594,1183.1l-.586.737-157.169-53.481-.282-.705,56.755-108.381Zm98.827,161.2-99.215-159.931L105.714,1129.6Z" transform="translate(-5.621 93.416)" fill="#39536e"/><path d="M105,1120.8l12.006,163.063,145.163-109.582Z" transform="translate(-5.621 102.497)" fill="#314b67"/><path d="M105.161,1120.327l157.169,53.481.14.872L117.307,1284.262l-.8-.362L104.5,1120.837Zm155.953,54.124-155.56-52.934,11.883,161.394Z" transform="translate(-5.621 102.497)" fill="#314b67"/><path d="M280.334,999.843,278.151,912.2,157,1031.5Z" transform="translate(-5.857 83.42)" fill="#334d68"/><path d="M157.124,1031.98l-.475-.841L277.8,911.844l.851.344,2.183,87.643-.376.5ZM277.68,913.366,158.673,1030.55l121.151-31.092Z" transform="translate(-5.857 83.42)" fill="#334d68"/><path d="M401.157,907.2,268,912.657l2.183,87.643Z" transform="translate(-11.157 82.963)" fill="#3d5771"/><path d="M401.136,906.7l.31.907-130.974,93.1-.79-.4L267.5,912.67l.479-.512ZM270.659,999.348l128.835-91.58-130.982,5.368Z" transform="translate(-11.157 82.963)" fill="#3d5771"/><path d="M400.974,1004.666V907.2L270,1000.3Z" transform="translate(-10.974 82.963)" fill="#3d5771"/><path d="M400.957,1005.166,269.983,1000.8l-.273-.907,130.974-93.1.79.408v97.466ZM271.5,999.85l128.977,4.3v-95.98Z" transform="translate(-10.974 82.963)" fill="#3d5771"/><path d="M116,1270.2l9.823,94.192,138.614,17.463Z" transform="translate(-5.68 116.159)" fill="#37516c"/><path d="M116.3,1269.8l148.437,111.655-.363.9-138.614-17.463-.435-.444-9.823-94.192Zm146.333,111.324L116.616,1271.289l9.663,92.656Z" transform="translate(-5.68 116.159)" fill="#37516c"/><path d="M0,1000.5v182.6l114.6-51.3Z" transform="translate(0 91.495)" fill="#39536e"/><path d="M.377,1000.171l114.6,131.3-.172.785L.2,1183.556l-.7-.456V1000.5Zm113.4,131.45L.5,1001.833v180.495Z" transform="translate(0 91.495)" fill="#39536e"/><path d="M114.6,1120.8,0,1172.1l126.608,111.764Z" transform="translate(0 102.497)" fill="#37516c"/><path d="M114.4,1120.344l.7.42,12.006,163.063-.83.412L-.331,1172.473l.127-.831Zm11.621,162.332-11.864-161.128L.913,1172.237Z" transform="translate(0 102.497)" fill="#37516c"/><path d="M126.608,1271.938,0,1251.2l136.431,114.93Z" transform="translate(0 114.422)" fill="#3b556f"/><path d="M.081,1250.707l126.608,20.738.416.442,9.823,94.192-.819.434L-.322,1251.582Zm126.07,21.663L1.71,1251.987l134.1,112.962Z" transform="translate(0 114.422)" fill="#3b556f"/><path d="M0,1000.5l114.6,131.3,56.755-108.381Z" transform="translate(0 91.495)" fill="#354f6a"/><path d="M.066,1000l171.358,22.92.377.728-56.755,108.381-.82.1-114.6-131.3Zm170.517,23.817L1.25,1001.172,114.5,1130.922Z" transform="translate(0 91.495)" fill="#354f6a"/><path d="M125,1356.5l116.785,148.765,21.829-131.3Z" transform="translate(-5.52 124.051)" fill="#2c4864"/><path d="M125.063,1356l138.614,17.463.431.578-21.829,131.3-.887.227L124.607,1356.809Zm137.973,18.39-136.891-17.246,115.333,146.915Z" transform="translate(-5.52 124.051)" fill="#2c4864"/><path d="M253.829,1372.5,232,1503.8l172.449-129.119Z" transform="translate(-14.449 125.514)" fill="#3d5771"/><path d="M253.836,1372l150.62,2.183.292.9L232.3,1504.2l-.793-.482,21.829-131.3Zm149.139,3.162-148.724-2.155L232.7,1502.654Z" transform="translate(-14.449 125.514)" fill="#3d5771"/><path d="M0,1167.8v91.027l126.608,20.738Z" transform="translate(0 106.795)" fill="#3f5973"/><path d="M.331,1167.425l126.608,111.764-.412.868L-.081,1259.32l-.419-.493V1167.8ZM124.976,1278.79.5,1168.908V1258.4Z" transform="translate(0 106.795)" fill="#3f5973"/><path d="M126.92,1356.5,104,1521.636l139.706-16.372Z" transform="translate(-4.646 124.051)" fill="#2a4662"/><path d="M127.314,1356.191,244.1,1504.956l-.335.805-139.705,16.372-.553-.565,22.92-165.136Zm115.448,148.681L127.254,1357.734l-22.67,163.33Z" transform="translate(-4.646 124.051)" fill="#2a4662"/><path d="M289.894,760.9,136,894.384l144.071,31.652Z" transform="translate(-7.043 69.584)" fill="#314b67"/><path d="M289.567,760.522l.827.407L280.57,926.066l-.606.459L135.893,894.873l-.22-.866Zm-9.96,164.9,9.718-163.366L137.08,894.109Z" transform="translate(-7.043 69.584)" fill="#314b67"/><path d="M280.071,914.852,136,883.2l22.92,150.947Z" transform="translate(-6.363 80.768)" fill="#2e4a65"/><path d="M136.107,882.712l144.071,31.652.244.845L159.271,1034.5l-.845-.281-22.92-150.947Zm142.956,32.431-142.46-31.3L159.268,1033.1Z" transform="translate(-6.363 80.768)" fill="#2e4a65"/><path d="M232,1503.618l172.449,29.469V1374.5Z" transform="translate(-14.449 125.697)" fill="#3d5771"/><path d="M404.365,1533.58l-172.449-29.469-.215-.893L404.149,1374.1l.8.4v158.588Zm-171.134-30.259,170.718,29.173v-157Z" transform="translate(-14.449 125.697)" fill="#3d5771"/><path d="M148.437,883.2,0,1011.227l171.358,22.92Z" transform="translate(0 80.768)" fill="#354f6a"/><path d="M148.111,882.821l.821.3,22.92,150.947-.561.571L-.066,1011.723l-.26-.874Zm22.653,150.742L148.079,884.169,1.169,1010.879Z" transform="translate(0 80.768)" fill="#354f6a"/><path d="M0,1417.621l113.511,104.015,22.92-165.136Z" transform="translate(0 124.051)" fill="#3f5973"/><path d="M136.227,1356.044l.7.525L114.006,1521.7l-.833.3L-.338,1417.99l.133-.825Zm-23.08,164.581,22.665-163.3L.9,1417.766Z" transform="translate(0 124.051)" fill="#3f5973"/><path d="M276,1652.193l124.425-36.018V1519.8Z" transform="translate(-10.425 138.985)" fill="#37516c"/><path d="M276.139,1652.673l-.5-.823,124.425-132.393.864.342v96.375l-.361.48Zm123.786-131.611L277.615,1651.2,399.925,1615.8Z" transform="translate(-10.425 138.985)" fill="#37516c"/><path d="M0,1251.2v176.051l136.431-61.121Z" transform="translate(0 114.422)" fill="#39536e"/><path d="M.322,1250.818l136.431,114.93-.118.839L.2,1427.707l-.7-.456V1251.2ZM135.5,1366,.5,1252.275v174.2Z" transform="translate(0 114.422)" fill="#39536e"/><path d="M401.157,920.579,277.823,760.9,268,926.036Z" transform="translate(-11.157 69.584)" fill="#37516c"/><path d="M268.02,926.536l-.52-.529,9.823-165.136.895-.276L401.552,920.273l-.375.805Zm10.222-164.274-9.711,163.252,131.638-5.395Z" transform="translate(-11.157 69.584)" fill="#37516c"/><path d="M148.437,885.3,0,860.2v153.13Z" transform="translate(0 78.665)" fill="#2e4a65"/><path d="M.083,859.707l148.437,25.1.243.872L.327,1013.709l-.827-.379V860.2Zm147.222,25.912L.5,860.792v151.447Z" transform="translate(0 78.665)" fill="#2e4a65"/><path d="M400.334,922.591V738.9L277,762.912Z" transform="translate(-10.334 67.572)" fill="#3f5973"/><path d="M399.938,922.9,276.6,763.218l.3-.8,123.334-24.012.6.491V922.591ZM277.891,763.248,399.834,921.126V739.507Z" transform="translate(-10.334 67.572)" fill="#3f5973"/><path d="M280.024,1654.662l124.425-132.393L232,1492.8Z" transform="translate(-14.449 136.516)" fill="#39536e"/><path d="M280.388,1655l-.844-.2-48.024-161.862.564-.635,172.449,29.469.28.835Zm-47.68-161.576,47.548,160.257,123.191-131.08Z" transform="translate(-14.449 136.516)" fill="#39536e"/><path d="M108.053,777.9,0,867.726l148.437,25.1Z" transform="translate(0 71.139)" fill="#3d5771"/><path d="M107.734,777.516l.791.219,40.384,114.93-.555.659L-.083,868.219l-.236-.878Zm39.95,114.68L107.82,778.744,1.157,867.415Z" transform="translate(0 71.139)" fill="#3d5771"/><path d="M293.278,760.9,99,779.455l40.384,114.93Z" transform="translate(-7.602 69.584)" fill="#3d5771"/><path d="M293.23,760.4l.375.875L139.711,894.762l-.8-.212L98.528,779.62l.424-.663ZM139.612,893.525,291.77,761.546,99.684,779.892Z" transform="translate(-7.602 69.584)" fill="#3d5771"/><path d="M0,794.114H108.053L0,600.6Z" transform="translate(0 54.925)" fill="#314b67"/><path d="M108.053,794.614H0l-.5-.5V600.6l.937-.244L108.49,793.87ZM.5,793.614H107.2L.5,602.521Z" transform="translate(0 54.925)" fill="#314b67"/><path d="M138,1688.5l150.62-33.835L240.6,1492.8Z" transform="translate(-6.911 136.516)" fill="#314b67"/><path d="M138.11,1688.985l-.552-.72,102.6-195.7.922.09L289.1,1654.52l-.37.63Zm102.358-194.862L138.944,1687.772l149.044-33.481Z" transform="translate(-6.911 136.516)" fill="#314b67"/><path d="M0,1412.5v119.3l113.511-15.28Z" transform="translate(0 129.173)" fill="#3f5973"/><path d="M.338,1412.131l113.511,104.015-.271.864L.067,1532.291l-.567-.5V1412.5Zm112.048,104.031L.5,1413.636v117.587Z" transform="translate(0 129.173)" fill="#3f5973"/><path d="M104,1509.172,141.109,1688.5l102.6-195.7Z" transform="translate(-4.646 136.516)" fill="#2e4a65"/><path d="M243.647,1492.3l.5.729-102.6,195.7-.932-.131L103.51,1509.273l.431-.6ZM141.316,1687.026l101.507-193.62L104.6,1509.6Z" transform="translate(-4.646 136.516)" fill="#2e4a65"/><path d="M257.26,637.6,99,790.73l194.278-18.555Z" transform="translate(-7.602 58.308)" fill="#354f6a"/><path d="M256.912,637.241l.831.23,36.018,134.576-.435.627L99.048,791.228l-.4-.857Zm35.73,134.494L257,638.55,100.374,790.1Z" transform="translate(-7.602 58.308)" fill="#354f6a"/><path d="M108.053,777.9H0v89.826Z" transform="translate(0 71.139)" fill="#3f5973"/><path d="M0,777.4H108.053l.32.884L.32,868.111l-.82-.384V777.9Zm106.67,1H.5v88.26Z" transform="translate(0 71.139)" fill="#3f5973"/><path d="M400.334,747.707V642.6L277,771.718Z" transform="translate(-10.334 58.765)" fill="#3f5973"/><path d="M277.1,772.209l-.457-.836L399.972,642.255l.862.345V747.707l-.4.491ZM399.834,643.847,278.447,770.927l121.387-23.633Z" transform="translate(-10.334 58.765)" fill="#3f5973"/><path d="M0,1628.187l150.62,58.938L113.511,1507.8Z" transform="translate(0 137.888)" fill="#2c4864"/><path d="M150.438,1687.591-.182,1628.652l-.182-.809,113.511-120.387.853.242,37.109,179.325ZM.872,1627.991l149.072,58.333-36.728-177.482Z" transform="translate(0 137.888)" fill="#2c4864"/><path d="M403.352,643.057,244,637.6l36.018,134.576Z" transform="translate(-13.352 58.308)" fill="#39536e"/><path d="M244.017,637.1l159.352,5.457.344.845L280.379,772.521l-.845-.216L243.517,637.729Zm158.2,6.418-157.562-5.4,35.613,133.064Z" transform="translate(-13.352 58.308)" fill="#39536e"/><path d="M0,1523.08v105.106L113.511,1507.8Z" transform="translate(0 137.888)" fill="#37516c"/><path d="M113.444,1507.3l.43.839L.364,1628.53l-.864-.343V1523.08l.433-.5ZM.5,1626.927l111.679-118.444L.5,1523.517Z" transform="translate(0 137.888)" fill="#37516c"/><path d="M266,1763.67l135.34-10.914L276.914,1641.1Z" transform="translate(-11.34 150.078)" fill="#2a4662"/><path d="M266.04,1764.168l-.538-.543,10.914-122.57.832-.328,124.425,111.655-.294.87Zm11.284-122.029-10.773,120.985L400.14,1752.35Z" transform="translate(-11.34 150.078)" fill="#2a4662"/><path d="M276,1644.118l124.425,111.655V1608.1Z" transform="translate(-10.425 147.06)" fill="#354f6a"/><path d="M400.286,1607.619l.639.48v147.673l-.834.372L275.666,1644.49l.195-.852Zm-.361,147.033V1608.765L277,1644.347Z" transform="translate(-10.425 147.06)" fill="#354f6a"/><path d="M262.511,537.3,149,621.669l103.688,25.1Z" transform="translate(-4.955 49.136)" fill="#2c4864"/><path d="M262.212,536.9l.8.446-9.823,109.472-.616.441-103.688-25.1-.181-.887ZM252.242,646.15l9.671-107.783L150.154,621.434Z" transform="translate(-4.955 49.136)" fill="#2c4864"/><path d="M257.26,639.7,153.572,614.6,99,792.834Z" transform="translate(-5.358 56.205)" fill="#39536e"/><path d="M153.69,614.114l103.688,25.1.23.845L99.348,793.193l-.826-.506,54.572-178.234Zm102.57,25.861L153.913,615.2,100.046,791.126Z" transform="translate(-5.358 56.205)" fill="#39536e"/><path d="M138,1674.935l139.706,88.735L288.62,1641.1Z" transform="translate(-6.911 150.078)" fill="#39536e"/><path d="M288.51,1640.612l.608.532L278.2,1763.714l-.766.378-139.706-88.735.159-.91Zm-11.23,122.2,10.781-121.069-148.776,33.421Z" transform="translate(-6.911 150.078)" fill="#39536e"/><path d="M155.463,1789.213l122.242-28.378L138,1672.1Z" transform="translate(-6.166 152.913)" fill="#3b556f"/><path d="M155.576,1789.7l-.608-.413-17.463-117.113.763-.5,139.706,88.735-.155.909Zm-16.92-116.591L155.878,1788.6l120.553-27.986Z" transform="translate(-6.166 152.913)" fill="#3b556f"/><path d="M0,1812.133l168.083-22.92L150.62,1672.1Z" transform="translate(0 152.913)" fill="#3f5973"/><path d="M.068,1812.628l-.408-.862,150.62-140.033.835.292,17.463,117.113-.427.569Zm150.2-139.516L1.5,1811.424l166.017-22.639Z" transform="translate(0 152.913)" fill="#3f5973"/><path d="M267.189,1754.314,253,1887.8l149.529-144.4Z" transform="translate(-12.529 159.433)" fill="#334d68"/><path d="M402.488,1742.9l.388.858-149.529,144.4-.845-.412,14.189-133.484.457-.446ZM253.643,1886.483l147.534-142.472-133.534,10.769Z" transform="translate(-12.529 159.433)" fill="#334d68"/><path d="M403.352,652.23,253.823,537.3,244,646.772Z" transform="translate(-13.352 49.136)" fill="#2a4662"/><path d="M403.334,652.729l-159.352-5.457-.481-.544,9.823-109.472.8-.352,149.529,114.93Zm-158.789-6.439,157.266,5.386L254.24,538.251Z" transform="translate(-13.352 49.136)" fill="#2a4662"/><path d="M162.626,528.3,0,607.212l162.626,15.28Z" transform="translate(0 48.313)" fill="#354f6a"/><path d="M162.408,527.85l.718.45v94.192l-.547.5L-.047,607.709l-.172-.948Zm-.282,94.093V529.1L1.827,606.881Z" transform="translate(0 48.313)" fill="#354f6a"/><path d="M162.626,615.88,0,600.6,108.053,794.114Z" transform="translate(0 54.925)" fill="#39536e"/><path d="M.047,600.1l162.626,15.28.431.644L108.532,794.26l-.915.1L-.437,600.844Zm161.921,16.219L.9,601.187l107.018,191.66Z" transform="translate(0 54.925)" fill="#39536e"/><path d="M262.511,538.123,149,528.3v94.192Z" transform="translate(-4.955 48.313)" fill="#314b67"/><path d="M149.043,527.8l113.511,9.823.255.9L149.3,622.893l-.8-.4V528.3Zm112.112,10.706L149.5,528.845V621.5Z" transform="translate(-4.955 48.313)" fill="#314b67"/><path d="M402.529,655.7V499.3L253,540.775Z" transform="translate(-12.529 45.661)" fill="#3d5771"/><path d="M402.224,656.1,252.7,541.171l.171-.878,149.529-41.475.634.482V655.7ZM254.1,540.989l147.93,113.7V499.958Z" transform="translate(-12.529 45.661)" fill="#3d5771"/><path d="M262.511,549.591,152.274,402.9,149,539.768Z" transform="translate(-4.955 36.845)" fill="#37516c"/><path d="M262.468,550.089l-113.511-9.823-.457-.51,3.274-136.868.9-.288L262.91,549.29ZM149.511,539.31,261.438,549,152.74,404.352Z" transform="translate(-4.955 36.845)" fill="#37516c"/><path d="M154,1781.778l108.053,105.107L276.242,1753.4Z" transform="translate(-5.674 160.348)" fill="#314b67"/><path d="M276.129,1752.913l.61.54-14.189,133.484-.846.306L153.651,1782.136l.236-.845Zm-14.464,132.9,14.006-131.763L155,1782.058Z" transform="translate(-5.674 160.348)" fill="#314b67"/><path d="M0,1618.1v198.971l150.62-140.033Z" transform="translate(0 147.975)" fill="#3f5973"/><path d="M.182,1617.634l150.62,58.938.158.832L.34,1817.437l-.84-.366V1618.1Zm149.515,59.58L.5,1618.832v197.091Z" transform="translate(0 147.975)" fill="#3f5973"/><path d="M159.213,1779.4,97,1932.53l170.266-48.024Z" transform="translate(-5.914 162.725)" fill="#2a4662"/><path d="M159.561,1779.042l108.054,105.106-.213.84L97.136,1933.011l-.6-.669,62.213-153.13ZM266.3,1884.26,159.4,1780.276l-61.548,151.5Z" transform="translate(-5.914 162.725)" fill="#2a4662"/><path d="M165.9,402.9,0,528.853l162.626,10.914Z" transform="translate(0 36.845)" fill="#2c4864"/><path d="M165.6,402.5l.8.41L163.126,539.78l-.533.487L-.033,529.352l-.269-.9Zm-3.459,136.732,3.237-135.308L1.366,528.444Z" transform="translate(0 36.845)" fill="#2c4864"/><path d="M162.626,529.214,0,518.3v89.826Z" transform="translate(0 47.398)" fill="#2e4a65"/><path d="M.033,517.8l162.626,10.914.185.949L.218,608.576l-.718-.45V518.3Zm160.679,11.786L.5,518.835v88.493Z" transform="translate(0 47.398)" fill="#2e4a65"/><path d="M402.529,2012.568v-83.387L253,1875.7Z" transform="translate(-12.529 171.532)" fill="#314b67"/><path d="M402.191,2012.936,252.662,1876.069l.506-.84L402.7,1928.71l.332.471v83.387Zm-147.023-135.93,146.861,134.426v-81.9Z" transform="translate(-12.529 171.532)" fill="#314b67"/><path d="M253,1887.8l149.529,53.481V1743.4Z" transform="translate(-12.529 159.433)" fill="#3b556f"/><path d="M402.36,1941.75l-149.529-53.481-.179-.83,149.529-144.4.847.36v197.88ZM253.927,1887.6l148.1,52.971V1744.578Z" transform="translate(-12.529 159.433)" fill="#3b556f"/><path d="M402.529,510.676,265.006,374.9,253,552.151Z" transform="translate(-12.529 34.284)" fill="#3f5973"/><path d="M253.134,552.633l-.633-.516,12.006-177.251.85-.322L402.88,510.32l-.218.838Zm12.3-176.611L253.547,551.481l148.016-41.056Z" transform="translate(-12.529 34.284)" fill="#3f5973"/><path d="M0,1802.32l105.871,130.21,62.213-153.13Z" transform="translate(0 162.725)" fill="#39536e"/><path d="M168.016,1778.9l.531.684-62.213,153.13-.851.127L-.388,1802.636l.32-.811Zm-62.29,152.655,61.569-151.547L.949,1802.7Z" transform="translate(0 162.725)" fill="#39536e"/><path d="M274.242,374.9,152,405.461,262.236,552.151Z" transform="translate(-5.6 34.284)" fill="#2c4864"/><path d="M274.121,374.415l.62.519L262.735,552.185l-.9.267L151.6,405.761l.278-.785ZM261.828,550.776,273.7,375.552,152.853,405.763Z" transform="translate(-5.6 34.284)" fill="#2c4864"/><path d="M401.523,400,264,374.9,401.523,510.676Z" transform="translate(-11.523 34.284)" fill="#354f6a"/><path d="M264.09,374.408l137.523,25.1.41.492V510.676l-.851.356L263.649,375.256ZM401.023,400.42,265.5,375.683l135.518,133.8Z" transform="translate(-11.523 34.284)" fill="#354f6a"/><path d="M0,1800.4v129.118l105.871,1.091Z" transform="translate(0 164.646)" fill="#3b556f"/><path d="M.388,1800.084l105.871,130.21-.393.815L-.005,1930.018l-.495-.5V1800.4ZM104.811,1930.1.5,1801.807v127.216Z" transform="translate(0 164.646)" fill="#3b556f"/><path d="M250,2066.049l152.8-53.481L253.274,1875.7Z" transform="translate(-12.803 171.532)" fill="#334d68"/><path d="M250.165,2066.521l-.665-.48,3.274-190.349.838-.36L403.14,2012.2l-.172.841Zm3.59-189.7-3.243,188.522,151.336-52.968Z" transform="translate(-12.803 171.532)" fill="#334d68"/><path d="M126.469,2009.293l140.8-133.593L97,1923.724Z" transform="translate(-5.914 171.532)" fill="#2a4662"/><path d="M126.813,2009.656l-.817-.2-29.469-85.57.337-.644,170.266-48.024.48.844Zm-29.168-85.595,29.044,84.334,138.764-131.665Z" transform="translate(-5.914 171.532)" fill="#2a4662"/><path d="M0,2052.2l135.34-46.932-29.469-85.57Z" transform="translate(0 175.556)" fill="#314b67"/><path d="M.164,2052.674l-.554-.784,105.871-132.5.863.149,29.469,85.57-.309.635Zm105.53-131.952L1.47,2051.163l133.234-46.2Z" transform="translate(0 175.556)" fill="#314b67"/><path d="M115.694,259.6,0,365.8,165.9,416Z" transform="translate(0 23.74)" fill="#354f6a"/><path d="M115.356,259.232l.814.216,50.207,156.4-.621.631L-.145,366.277l-.193-.847ZM165.133,415.25,115.456,260.5.984,365.573Z" transform="translate(0 23.74)" fill="#354f6a"/><path d="M165.9,407.107,0,356.9V533.06Z" transform="translate(0 32.638)" fill="#2c4864"/><path d="M.145,356.421l165.9,50.207.158.877L.3,533.458l-.8-.4V356.9ZM164.817,407.3.5,357.574V532.053Z" transform="translate(0 32.638)" fill="#2c4864"/><path d="M124,2009.293l137.523,56.756L264.8,1875.7Z" transform="translate(-5.605 171.532)" fill="#2c4864"/><path d="M261.332,2066.511l-137.523-56.756-.153-.825,140.8-133.593.844.371-3.274,190.349ZM124.9,2009.125l136.132,56.182,3.241-188.424Z" transform="translate(-5.605 171.532)" fill="#2c4864"/><path d="M401.523,410.639V258.6L264,385.536Z" transform="translate(-11.523 23.649)" fill="#2a4662"/><path d="M401.433,411.131l-137.523-25.1-.249-.859L401.183,258.233l.839.367V410.639ZM265.075,385.224l135.947,24.816v-150.3Z" transform="translate(-11.523 23.649)" fill="#2a4662"/><path d="M278.449,385.444,106,259.6,156.207,416Z" transform="translate(-6.602 23.74)" fill="#3d5771"/><path d="M156.328,416.49l-.6-.332-50.207-156.4.771-.557L278.744,385.04l-.173.889ZM106.945,260.909l49.594,154.5,120.752-30.188Z" transform="translate(-6.602 23.74)" fill="#3d5771"/><path d="M0,1918.7v133.594l105.871-132.5Z" transform="translate(0 175.464)" fill="#2e4a65"/><path d="M.005,1918.2l105.871,1.092.385.812L.391,2052.605l-.891-.312V1918.7Zm104.834,2.081L.5,1919.2v131.662Z" transform="translate(0 175.464)" fill="#2e4a65"/><path d="M97,2175.944l178.259,9.823L236.151,2050.1Z" transform="translate(8.871 187.481)" fill="#2c4864"/><path d="M275.231,2186.266l-178.259-9.823-.308-.87,139.151-125.844.816.232,39.108,135.667ZM98.225,2175.51l176.359,9.718-38.691-134.221Z" transform="translate(8.871 187.481)" fill="#2c4864"/><path d="M294.821,221.6,106,263.075,278.449,388.919Z" transform="translate(-7.728 20.265)" fill="#2e4a65"/><path d="M294.713,221.112l.6.537L278.947,388.968l-.792.355L105.705,263.479l.187-.892ZM278.037,388l16.22-165.763L107.191,263.325Z" transform="translate(-7.728 20.265)" fill="#2e4a65"/><path d="M401.523,261.984,280.372,221.6,264,388.919Z" transform="translate(-11.523 20.265)" fill="#3d5771"/><path d="M280.53,221.126l121.151,40.384.181.842L264.339,389.287l-.837-.416,16.372-167.319ZM400.561,262.19,280.808,222.273,264.625,387.661Z" transform="translate(-11.523 20.265)" fill="#3d5771"/><path d="M0,143.3V258.23l115.694,12.006Z" transform="translate(0 13.105)" fill="#3d5771"/><path d="M.37,142.963,116.063,269.9l-.421.834L-.052,258.727l-.448-.5V143.3ZM114.44,269.6.5,144.591V257.779Z" transform="translate(0 13.105)" fill="#3d5771"/><path d="M115.694,260.606,0,248.6V366.8Z" transform="translate(0 22.734)" fill="#334d68"/><path d="M.052,248.1l115.694,12.006.286.866L.338,367.172-.5,366.8V248.6Zm114.486,12.886L.5,249.155V365.666Z" transform="translate(0 22.734)" fill="#334d68"/><path d="M97,2187.388l159.3-130.454L125.112,1998.1Z" transform="translate(1.966 182.725)" fill="#3b556f"/><path d="M97.317,2187.775l-.811-.46,28.112-189.288.7-.383L256.5,2056.478l.112.843Zm28.192-188.948L97.685,2186.181,255.357,2057.06Z" transform="translate(1.966 182.725)" fill="#3b556f"/><path d="M250,2054.581l152.8,134.575V2001.1Z" transform="translate(-12.803 183)" fill="#37516c"/><path d="M402.638,2000.628l.665.472v188.056l-.83.375-152.8-134.575.165-.847ZM402.3,2188.05V2001.8l-151.331,52.966Z" transform="translate(-12.803 183)" fill="#37516c"/><path d="M296.932,2185.767l105.871-1.092L250,2050.1Z" transform="translate(-12.803 187.481)" fill="#314b67"/><path d="M296.937,2186.267l-.478-.336-46.932-135.667.8-.539,152.8,134.575-.325.875Zm-45.845-134.539,46.195,133.535,104.207-1.074Z" transform="translate(-12.803 187.481)" fill="#314b67"/><path d="M0,2045.032,105.871,2180.7l29.469-182.6Z" transform="translate(0 182.725)" fill="#334d68"/><path d="M135.176,1997.627l.657.552-29.469,182.6-.888.228L-.394,2045.34l.23-.78ZM105.56,2179.488l29.153-180.642L.824,2045.276Z" transform="translate(0 182.725)" fill="#334d68"/><path d="M400.151,268.321V152.3L279,227.937Z" transform="translate(-10.151 13.928)" fill="#2a4662"/><path d="M399.993,268.8,278.842,228.412l-.107-.9,121.151-75.637.765.424V268.321Zm-119.827-41,119.485,39.828V153.2Z" transform="translate(-10.151 13.928)" fill="#2a4662"/><path d="M294.821,228.76,254.437,143.3,106,270.236Z" transform="translate(-7.728 13.105)" fill="#3f5973"/><path d="M106.107,270.724l-.432-.868L254.112,142.92l.777.166,40.384,85.461-.345.7ZM254.265,144.105,107.841,269.319,294.1,228.407Z" transform="translate(-7.728 13.105)" fill="#3f5973"/><path d="M403.535,153.123,242,143.3l40.384,85.461Z" transform="translate(-13.535 13.105)" fill="#39536e"/><path d="M242.03,142.8l161.535,9.823.234.923L282.648,229.185l-.717-.21-40.384-85.461Zm159.913,10.726-159.13-9.677L282.6,228.039Z" transform="translate(-13.535 13.105)" fill="#39536e"/><path d="M0,2041.1v128.027l105.871,7.64Z" transform="translate(0 186.658)" fill="#334d68"/><path d="M.394,2040.792l105.871,135.667-.43.806-105.871-7.64-.464-.5V2041.1Zm104.39,135.395L.5,2042.553v126.108Z" transform="translate(0 186.658)" fill="#334d68"/><path d="M154.986,99.3,0,147.324,115.694,274.259Z" transform="translate(0 9.081)" fill="#334d68"/><path d="M154.838,98.822l.636.587L116.181,274.369l-.857.227L-.37,147.661l.222-.814Zm-39.422,174.39,38.892-173.179L.9,147.568Z" transform="translate(0 9.081)" fill="#334d68"/><path d="M254.437,147.324,145.292,99.3,106,274.259Z" transform="translate(-5.19 9.081)" fill="#3d5771"/><path d="M145.494,98.842l109.145,48.024.124.838L106.325,274.639l-.813-.49L144.8,99.19Zm108.014,48.619L145.647,100l-38.83,172.9Z" transform="translate(-5.19 9.081)" fill="#3d5771"/><path d="M256.6,0,142,108.381,251.145,156.4Z" transform="translate(-4.784)" fill="#354f6a"/><path d="M256.259-.363l.843.381-5.457,156.4-.7.44L141.8,108.839l-.142-.821ZM250.671,155.65,256.06,1.2,142.891,108.227Z" transform="translate(-4.784)" fill="#354f6a"/><path d="M97,2165.4l171.892,123.661,6.366-113.838Z" transform="translate(8.871 198.025)" fill="#3b556f"/><path d="M97.027,2164.9l178.259,9.823.472.527-6.366,113.838-.791.378L96.708,2165.806Zm177.7,10.794-176.051-9.7,169.763,122.129Z" transform="translate(8.871 198.025)" fill="#3b556f"/><path d="M293.64,2174.491,286,2288.329,399.511,2173.4Z" transform="translate(-9.511 198.756)" fill="#3b556f"/><path d="M399.506,2172.9l.361.851-113.511,114.93-.855-.385,7.64-113.838.494-.467ZM286.589,2287.021,398.3,2173.912l-104.194,1.074Z" transform="translate(-9.511 198.756)" fill="#3b556f"/><path d="M96,2320.509l189.165-28.038L97,2165.4Z" transform="translate(9.871 193.863)" fill="#39536e"/><path d="M96.073,2321l-.573-.5,1-155.109.78-.411,188.169,127.07-.207.909Zm1.416-154.666L96.5,2319.929l187.315-27.764Z" transform="translate(9.871 193.863)" fill="#39536e"/><path d="M286,2288.329l113.511,24.012V2173.4Z" transform="translate(-9.511 198.756)" fill="#3f5973"/><path d="M399.407,2312.831,285.9,2288.819l-.252-.841,113.511-114.93.856.351v138.942ZM287,2288.03l112.012,23.695V2174.617Z" transform="translate(-9.511 198.756)" fill="#3f5973"/><path d="M0,2297.792l104.779,18.555,1.091-150.947Z" transform="translate(0 198.025)" fill="#3d5771"/><path d="M104.692,2316.84-.087,2298.285l-.3-.8L105.48,2165.088l.89.316-1.091,150.947ZM.916,2297.447l103.367,18.3,1.077-148.913Z" transform="translate(0 198.025)" fill="#3d5771"/><path d="M286.457,2278.7,281,2411.093l118.968-108.381Z" transform="translate(-9.968 208.386)" fill="#3f5973"/><path d="M286.561,2278.21l113.511,24.012.233.859L281.337,2411.462l-.836-.39,5.457-132.393ZM398.91,2303l-111.978-23.688-5.384,130.6Z" transform="translate(-9.968 208.386)" fill="#3f5973"/><path d="M0,2158.4v140.033L105.871,2166.04Z" transform="translate(0 197.385)" fill="#2c4864"/><path d="M.036,2157.9l105.871,7.64.355.811L.39,2298.745l-.89-.312V2158.4Zm104.85,8.569L.5,2158.937v138.07Z" transform="translate(0 197.385)" fill="#2c4864"/><path d="M403.535,166.228V0L242,156.4Z" transform="translate(-13.535)" fill="#334d68"/><path d="M403.5,166.727,241.97,156.9l-.317-.858L403.187-.359l.848.359V166.228ZM243.163,155.975,403.035,165.7V1.18Z" transform="translate(-13.535)" fill="#334d68"/><path d="M154.986,108.381,0,0V156.4Z" fill="#334d68"/><path d="M.148,156.882-.5,156.4V0L.287-.41,155.272,107.971l-.139.887ZM.5.96V155.726l153.362-47.521Z" fill="#334d68"/><path d="M403.535,0H247.457L242,156.4Z" transform="translate(-13.535)" fill="#39536e"/><path d="M247.457-.5H403.535l.348.859-161.535,156.4-.847-.377,5.457-156.4ZM402.3.5H247.94l-5.4,154.683Z" transform="translate(-13.535)" fill="#39536e"/><path d="M257.425,0H133l9.823,108.381Z" transform="translate(-5.024)" fill="#334d68"/><path d="M133-.5H257.425l.344.863-114.6,108.381-.842-.318L132.5.045ZM256.169.5H133.547l9.681,106.81Z" transform="translate(-5.024)" fill="#334d68"/><path d="M145.163,0H0L154.986,108.381Z" fill="#334d68"/><path d="M0-.5H145.163l.5.455,9.823,108.381-.785.455L-.287.41ZM144.706.5H1.588l152.8,106.855Z" fill="#334d68"/><path d="M158.213,2411.093,303.375,2278.7,96,2305.986Z" transform="translate(-8.34 208.386)" fill="#314b67"/><path d="M158.55,2411.462l-.767-.115L95.57,2306.241l.365-.75L303.31,2278.2l.4.865ZM96.816,2306.383l61.514,103.926L301.862,2279.4Z" transform="translate(-8.34 208.386)" fill="#314b67"/><path d="M153,2411.093H292.706l5.457-132.393Z" transform="translate(-7.241 208.386)" fill="#314b67"/><path d="M292.706,2411.593H153l-.337-.869L297.826,2278.33l.837.39-5.457,132.393Zm-138.415-1H292.226l5.388-130.715Z" transform="translate(-7.241 208.386)" fill="#314b67"/><path d="M281,2409.081H399.968V2300.7Z" transform="translate(-9.968 210.398)" fill="#3f5973"/><path d="M399.968,2409.581H281l-.337-.87L399.631,2300.33l.837.37v108.381Zm-117.677-1H399.468V2301.832Z" transform="translate(-9.968 210.398)" fill="#3f5973"/><path d="M0,2408.806H166.992L104.779,2303.7Z" transform="translate(0 210.672)" fill="#2c4864"/><path d="M166.992,2409.306H0l-.354-.853,104.779-105.106.784.1,62.213,105.106Zm-165.787-1h164.91l-61.437-103.8Z" transform="translate(0 210.672)" fill="#2c4864"/><path d="M0,2286.7v123.661l104.779-105.107Z" transform="translate(0 209.117)" fill="#334d68"/><path d="M.087,2286.208l104.779,18.555.267.845L.354,2410.714l-.854-.353V2286.7Zm103.662,19.373L.5,2287.3v121.855Z" transform="translate(0 209.117)" fill="#334d68"/></g></svg>