<svg xmlns="http://www.w3.org/2000/svg" width="391" height="2621" viewBox="0 0 391 2621">
  <g id="low-poly-grid-haikei" transform="translate(0.5 0.5)">
    <path id="パス_209" data-name="パス 209" d="M176,1303l-9-166.1L0,1297Z" fill="#ffc9de" stroke="#ffc9de" stroke-linejoin="bevel" stroke-width="1"/>
    <path id="パス_210" data-name="パス 210" d="M167,1136.9l-167-39V1297Z" fill="#ffbddb" stroke="#ffbddb" stroke-linejoin="bevel" stroke-width="1"/>
    <path id="パス_211" data-name="パス 211" d="M0,1297v163.1L176,1303Z" fill="#ffd2e1" stroke="#ffd2e1" stroke-linejoin="bevel" stroke-width="1"/>
    <path id="パス_212" data-name="パス 212" d="M0,1460.1l177,32L176,1303Z" fill="#ffd2e1" stroke="#ffd2e1" stroke-linejoin="bevel" stroke-width="1"/>
    <path id="パス_213" data-name="パス 213" d="M167,1136.9,0,950.7v147.2Z" fill="#ffdbe5" stroke="#ffdbe5" stroke-linejoin="bevel" stroke-width="1"/>
    <path id="パス_214" data-name="パス 214" d="M390,1341V1121.9L176,1303Z" fill="#ffb8db" stroke="#ffb8db" stroke-linejoin="bevel" stroke-width="1"/>
    <path id="パス_215" data-name="パス 215" d="M176,1303l214-181.1-223,15Z" fill="#ffcee0" stroke="#ffcee0" stroke-linejoin="bevel" stroke-width="1"/>
    <path id="パス_216" data-name="パス 216" d="M167,1136.9l35-220.2L0,950.7Z" fill="#ffdbe5" stroke="#ffdbe5" stroke-linejoin="bevel" stroke-width="1"/>
    <path id="パス_217" data-name="パス 217" d="M177,1492.1,390,1341l-214-38Z" fill="#ffc5dd" stroke="#ffc5dd" stroke-linejoin="bevel" stroke-width="1"/>
    <path id="パス_218" data-name="パス 218" d="M390,969.7l-188-53-35,220.2Z" fill="#ffd2e1" stroke="#ffd2e1" stroke-linejoin="bevel" stroke-width="1"/>
    <path id="パス_219" data-name="パス 219" d="M390,1121.9V969.7L167,1136.9Z" fill="#ffdbe5" stroke="#ffdbe5" stroke-linejoin="bevel" stroke-width="1"/>
    <path id="パス_220" data-name="パス 220" d="M177,1492.1l213-1V1341Z" fill="#ffcee0" stroke="#ffcee0" stroke-linejoin="bevel" stroke-width="1"/>
    <path id="パス_221" data-name="パス 221" d="M0,1460.1l169,216.2,8-184.2Z" fill="#ffcee0" stroke="#ffcee0" stroke-linejoin="bevel" stroke-width="1"/>
    <path id="パス_222" data-name="パス 222" d="M177,1492.1l213,185.2V1491.1Z" fill="#ffc5dd" stroke="#ffc5dd" stroke-linejoin="bevel" stroke-width="1"/>
    <path id="パス_223" data-name="パス 223" d="M390,773.6l-194-6,6,149.1Z" fill="#ffdbe5" stroke="#ffdbe5" stroke-linejoin="bevel" stroke-width="1"/>
    <path id="パス_224" data-name="パス 224" d="M202,916.7,0,763.6V950.7Z" fill="#ffdbe5" stroke="#ffdbe5" stroke-linejoin="bevel" stroke-width="1"/>
    <path id="パス_225" data-name="パス 225" d="M196,767.6l-196-4L202,916.7Z" fill="#ffcee0" stroke="#ffcee0" stroke-linejoin="bevel" stroke-width="1"/>
    <path id="パス_226" data-name="パス 226" d="M0,1460.1v242.2l169-26Z" fill="#ffb8db" stroke="#ffb8db" stroke-linejoin="bevel" stroke-width="1"/>
    <path id="パス_227" data-name="パス 227" d="M390,969.7V773.6L202,916.7Z" fill="#ffc9de" stroke="#ffc9de" stroke-linejoin="bevel" stroke-width="1"/>
    <path id="パス_228" data-name="パス 228" d="M390,1848.4V1677.3l-221-1Z" fill="#ffb4da" stroke="#ffb4da" stroke-linejoin="bevel" stroke-width="1"/>
    <path id="パス_229" data-name="パス 229" d="M169,1676.3l221,1L177,1492.1Z" fill="#ffdbe5" stroke="#ffdbe5" stroke-linejoin="bevel" stroke-width="1"/>
    <path id="パス_230" data-name="パス 230" d="M0,1702.3v140.1l169-166.1Z" fill="#feb0da" stroke="#feb0da" stroke-linejoin="bevel" stroke-width="1"/>
    <path id="パス_231" data-name="パス 231" d="M196,767.6l-4-172.2L0,763.6Z" fill="#ffc1dc" stroke="#ffc1dc" stroke-linejoin="bevel" stroke-width="1"/>
    <path id="パス_232" data-name="パス 232" d="M390,773.6,192,595.4l4,172.2Z" fill="#ffcee0" stroke="#ffcee0" stroke-linejoin="bevel" stroke-width="1"/>
    <path id="パス_233" data-name="パス 233" d="M0,1842.4l167,39,2-205.1Z" fill="#ffc1dc" stroke="#ffc1dc" stroke-linejoin="bevel" stroke-width="1"/>
    <path id="パス_234" data-name="パス 234" d="M192,595.4,0,564.4V763.6Z" fill="#ffd7e3" stroke="#ffd7e3" stroke-linejoin="bevel" stroke-width="1"/>
    <path id="パス_235" data-name="パス 235" d="M167,1881.4l223-33L169,1676.3Z" fill="#ffc5dd" stroke="#ffc5dd" stroke-linejoin="bevel" stroke-width="1"/>
    <path id="パス_236" data-name="パス 236" d="M390,773.6V554.4l-198,41Z" fill="#ffc9de" stroke="#ffc9de" stroke-linejoin="bevel" stroke-width="1"/>
    <path id="パス_237" data-name="パス 237" d="M192,595.4l-5-207.1L0,564.4Z" fill="#ffcee0" stroke="#ffcee0" stroke-linejoin="bevel" stroke-width="1"/>
    <path id="パス_238" data-name="パス 238" d="M0,1842.4v203.2l167-164.2Z" fill="#ffd2e1" stroke="#ffd2e1" stroke-linejoin="bevel" stroke-width="1"/>
    <path id="パス_239" data-name="パス 239" d="M167,1881.4l223,168.2V1848.4Z" fill="#ffd7e3" stroke="#ffd7e3" stroke-linejoin="bevel" stroke-width="1"/>
    <path id="パス_240" data-name="パス 240" d="M390,554.4,187,388.3l5,207.1Z" fill="#ffbddb" stroke="#ffbddb" stroke-linejoin="bevel" stroke-width="1"/>
    <path id="パス_241" data-name="パス 241" d="M187,388.3l-187-5V564.4Z" fill="#ffc9de" stroke="#ffc9de" stroke-linejoin="bevel" stroke-width="1"/>
    <path id="パス_242" data-name="パス 242" d="M0,2045.6l227,33-60-197.2Z" fill="#ffb8db" stroke="#ffb8db" stroke-linejoin="bevel" stroke-width="1"/>
    <path id="パス_243" data-name="パス 243" d="M390,554.4V402.3l-203-14Z" fill="#ffc5dd" stroke="#ffc5dd" stroke-linejoin="bevel" stroke-width="1"/>
    <path id="パス_244" data-name="パス 244" d="M227,2078.6l163-29L167,1881.4Z" fill="#ffbddb" stroke="#ffbddb" stroke-linejoin="bevel" stroke-width="1"/>
    <path id="パス_245" data-name="パス 245" d="M0,2045.6l182,193.1,45-160.1Z" fill="#ffc9de" stroke="#ffc9de" stroke-linejoin="bevel" stroke-width="1"/>
    <path id="パス_246" data-name="パス 246" d="M227,2078.6l163,136.1V2049.6Z" fill="#ffc1dc" stroke="#ffc1dc" stroke-linejoin="bevel" stroke-width="1"/>
    <path id="パス_247" data-name="パス 247" d="M0,2220.7l182,18L0,2045.6Z" fill="#ffbddb" stroke="#ffbddb" stroke-linejoin="bevel" stroke-width="1"/>
    <path id="パス_248" data-name="パス 248" d="M390,402.3,230,211.1,187,388.3Z" fill="#ffbddb" stroke="#ffbddb" stroke-linejoin="bevel" stroke-width="1"/>
    <path id="パス_249" data-name="パス 249" d="M187,388.3,0,168.1V383.3Z" fill="#ffd2e1" stroke="#ffd2e1" stroke-linejoin="bevel" stroke-width="1"/>
    <path id="パス_250" data-name="パス 250" d="M182,2238.7l208-24L227,2078.6Z" fill="#ffcee0" stroke="#ffcee0" stroke-linejoin="bevel" stroke-width="1"/>
    <path id="パス_251" data-name="パス 251" d="M230,211.1,0,168.1,187,388.3Z" fill="#ffd2e1" stroke="#ffd2e1" stroke-linejoin="bevel" stroke-width="1"/>
    <path id="パス_252" data-name="パス 252" d="M390,402.3V177.1l-160,34Z" fill="#ffdbe5" stroke="#ffdbe5" stroke-linejoin="bevel" stroke-width="1"/>
    <path id="パス_253" data-name="パス 253" d="M230,211.1,163,0,0,168.1Z" fill="#ffc9de" stroke="#ffc9de" stroke-linejoin="bevel" stroke-width="1"/>
    <path id="パス_254" data-name="パス 254" d="M0,2220.7l171,198.2,11-180.2Z" fill="#ffb4da" stroke="#ffb4da" stroke-linejoin="bevel" stroke-width="1"/>
    <path id="パス_255" data-name="パス 255" d="M182,2238.7l208,193.2V2214.7Z" fill="#ffb4da" stroke="#ffb4da" stroke-linejoin="bevel" stroke-width="1"/>
    <path id="パス_256" data-name="パス 256" d="M390,0H163l67,211.1Z" fill="#ffbddb" stroke="#ffbddb" stroke-linejoin="bevel" stroke-width="1"/>
    <path id="パス_257" data-name="パス 257" d="M163,0H0V168.1Z" fill="#ffd7e3" stroke="#ffd7e3" stroke-linejoin="bevel" stroke-width="1"/>
    <path id="パス_258" data-name="パス 258" d="M0,2220.7v241.2l171-43Z" fill="#ffd2e1" stroke="#ffd2e1" stroke-linejoin="bevel" stroke-width="1"/>
    <path id="パス_259" data-name="パス 259" d="M171,2418.9l219,13L182,2238.7Z" fill="#feb0da" stroke="#feb0da" stroke-linejoin="bevel" stroke-width="1"/>
    <path id="パス_260" data-name="パス 260" d="M223,2620l167-188.1-219-13Z" fill="#ffd7e3" stroke="#ffd7e3" stroke-linejoin="bevel" stroke-width="1"/>
    <path id="パス_261" data-name="パス 261" d="M390,177.1V0L230,211.1Z" fill="#ffd7e3" stroke="#ffd7e3" stroke-linejoin="bevel" stroke-width="1"/>
    <path id="パス_262" data-name="パス 262" d="M0,2461.9V2620l171-201.1Z" fill="#ffc5dd" stroke="#ffc5dd" stroke-linejoin="bevel" stroke-width="1"/>
    <path id="パス_263" data-name="パス 263" d="M0,2620H223l-52-201.1Z" fill="#ffc1dc" stroke="#ffc1dc" stroke-linejoin="bevel" stroke-width="1"/>
    <path id="パス_264" data-name="パス 264" d="M223,2620H390V2431.9Z" fill="#ffd7e3" stroke="#ffd7e3" stroke-linejoin="bevel" stroke-width="1"/>
  </g>
</svg>
